<?xml version="1.0" encoding="utf-8" standalone="no"?>
<!DOCTYPE svg PUBLIC "-//W3C//DTD SVG 1.1//EN"
  "http://www.w3.org/Graphics/SVG/1.1/DTD/svg11.dtd">
<!-- Created with matplotlib (https://matplotlib.org/) -->
<svg height="1800pt" version="1.1" viewBox="0 0 1440 1800" width="1440pt" xmlns="http://www.w3.org/2000/svg" xmlns:xlink="http://www.w3.org/1999/xlink">
 <defs>
  <style type="text/css">
*{stroke-linecap:butt;stroke-linejoin:round;}
  </style>
 </defs>
 <g id="figure_1">
  <g id="patch_1">
   <path d="M 0 1800 
L 1440 1800 
L 1440 0 
L 0 0 
z
" style="fill:#ffffff;"/>
  </g>
  <g id="axes_1">
   <g id="patch_2">
    <path clip-path="url(#p9c638784dd)" d="M 1110.747503 167.707661 
Q 1123.777974 185.95032 1136.158601 203.283198 
" style="fill:none;stroke:#000000;stroke-linecap:round;"/>
    <path clip-path="url(#p9c638784dd)" d="M 1135.461115 198.865788 
L 1136.158601 203.283198 
L 1132.206181 201.190741 
L 1135.461115 198.865788 
z
" style="stroke:#000000;stroke-linecap:round;"/>
   </g>
   <g id="patch_3">
    <path clip-path="url(#p9c638784dd)" d="M 1094.307247 167.705391 
Q 953.767474 364.461073 813.877545 560.306974 
" style="fill:none;stroke:#000000;stroke-linecap:round;"/>
    <path clip-path="url(#p9c638784dd)" d="M 817.829965 558.214516 
L 813.877545 560.306974 
L 814.575031 555.889564 
L 817.829965 558.214516 
z
" style="stroke:#000000;stroke-linecap:round;"/>
   </g>
   <g id="patch_4">
    <path clip-path="url(#p9c638784dd)" d="M 1153.250454 227.211793 
Q 1166.280925 245.454452 1178.661552 262.78733 
" style="fill:none;stroke:#000000;stroke-linecap:round;"/>
    <path clip-path="url(#p9c638784dd)" d="M 1177.964066 258.36992 
L 1178.661552 262.78733 
L 1174.709133 260.694873 
L 1177.964066 258.36992 
z
" style="stroke:#000000;stroke-linecap:round;"/>
   </g>
   <g id="patch_5">
    <path clip-path="url(#p9c638784dd)" d="M 1136.809226 227.210885 
Q 1017.519978 394.215832 898.880574 560.310998 
" style="fill:none;stroke:#000000;stroke-linecap:round;"/>
    <path clip-path="url(#p9c638784dd)" d="M 902.832994 558.218541 
L 898.880574 560.310998 
L 899.57806 555.893588 
L 902.832994 558.218541 
z
" style="stroke:#000000;stroke-linecap:round;"/>
   </g>
   <g id="patch_6">
    <path clip-path="url(#p9c638784dd)" d="M 1195.753406 286.715925 
Q 1208.783877 304.958585 1221.164504 322.291462 
" style="fill:none;stroke:#000000;stroke-linecap:round;"/>
    <path clip-path="url(#p9c638784dd)" d="M 1220.467018 317.874052 
L 1221.164504 322.291462 
L 1217.212084 320.199005 
L 1220.467018 317.874052 
z
" style="stroke:#000000;stroke-linecap:round;"/>
   </g>
   <g id="patch_7">
    <path clip-path="url(#p9c638784dd)" d="M 1179.312178 286.715017 
Q 1123.776995 364.464274 1068.891656 441.303748 
" style="fill:none;stroke:#000000;stroke-linecap:round;"/>
    <path clip-path="url(#p9c638784dd)" d="M 1072.844075 439.211291 
L 1068.891656 441.303748 
L 1069.589141 436.886338 
L 1072.844075 439.211291 
z
" style="stroke:#000000;stroke-linecap:round;"/>
   </g>
   <g id="patch_8">
    <path clip-path="url(#p9c638784dd)" d="M 1238.256357 346.220057 
Q 1251.286829 364.462717 1263.667455 381.795595 
" style="fill:none;stroke:#000000;stroke-linecap:round;"/>
    <path clip-path="url(#p9c638784dd)" d="M 1262.96997 377.378184 
L 1263.667455 381.795595 
L 1259.715036 379.703137 
L 1262.96997 377.378184 
z
" style="stroke:#000000;stroke-linecap:round;"/>
   </g>
   <g id="patch_9">
    <path clip-path="url(#p9c638784dd)" d="M 1221.814481 346.220057 
Q 1187.530959 394.216987 1153.897282 441.304136 
" style="fill:none;stroke:#000000;stroke-linecap:round;"/>
    <path clip-path="url(#p9c638784dd)" d="M 1157.849702 439.211678 
L 1153.897282 441.304136 
L 1154.594768 436.886725 
L 1157.849702 439.211678 
z
" style="stroke:#000000;stroke-linecap:round;"/>
   </g>
   <g id="patch_10">
    <path clip-path="url(#p9c638784dd)" d="M 1280.759309 405.72419 
Q 1293.78978 423.966849 1306.170407 441.299727 
" style="fill:none;stroke:#000000;stroke-linecap:round;"/>
    <path clip-path="url(#p9c638784dd)" d="M 1305.472921 436.882317 
L 1306.170407 441.299727 
L 1302.217987 439.207269 
L 1305.472921 436.882317 
z
" style="stroke:#000000;stroke-linecap:round;"/>
   </g>
   <g id="patch_11">
    <path clip-path="url(#p9c638784dd)" d="M 1264.317432 405.72419 
Q 1251.286961 423.966849 1238.906334 441.299727 
" style="fill:none;stroke:#000000;stroke-linecap:round;"/>
    <path clip-path="url(#p9c638784dd)" d="M 1242.858754 439.207269 
L 1238.906334 441.299727 
L 1239.60382 436.882317 
L 1242.858754 439.207269 
z
" style="stroke:#000000;stroke-linecap:round;"/>
   </g>
   <g id="patch_12">
    <path clip-path="url(#p9c638784dd)" d="M 1238.256357 465.228322 
Q 1251.286829 483.470981 1263.667455 500.803859 
" style="fill:none;stroke:#000000;stroke-linecap:round;"/>
    <path clip-path="url(#p9c638784dd)" d="M 1262.96997 496.386449 
L 1263.667455 500.803859 
L 1259.715036 498.711402 
L 1262.96997 496.386449 
z
" style="stroke:#000000;stroke-linecap:round;"/>
   </g>
   <g id="patch_13">
    <path clip-path="url(#p9c638784dd)" d="M 1280.759309 524.732454 
Q 1293.78978 542.975114 1306.170407 560.307991 
" style="fill:none;stroke:#000000;stroke-linecap:round;"/>
    <path clip-path="url(#p9c638784dd)" d="M 1305.472921 555.890581 
L 1306.170407 560.307991 
L 1302.217987 558.215534 
L 1305.472921 555.890581 
z
" style="stroke:#000000;stroke-linecap:round;"/>
   </g>
   <g id="patch_14">
    <path clip-path="url(#p9c638784dd)" d="M 1153.250454 465.228322 
Q 1166.280925 483.470981 1178.661552 500.803859 
" style="fill:none;stroke:#000000;stroke-linecap:round;"/>
    <path clip-path="url(#p9c638784dd)" d="M 1177.964066 496.386449 
L 1178.661552 500.803859 
L 1174.709133 498.711402 
L 1177.964066 496.386449 
z
" style="stroke:#000000;stroke-linecap:round;"/>
   </g>
   <g id="patch_15">
    <path clip-path="url(#p9c638784dd)" d="M 1195.753406 524.732454 
Q 1208.783877 542.975114 1221.164504 560.307991 
" style="fill:none;stroke:#000000;stroke-linecap:round;"/>
    <path clip-path="url(#p9c638784dd)" d="M 1220.467018 555.890581 
L 1221.164504 560.307991 
L 1217.212084 558.215534 
L 1220.467018 555.890581 
z
" style="stroke:#000000;stroke-linecap:round;"/>
   </g>
   <g id="patch_16">
    <path clip-path="url(#p9c638784dd)" d="M 1068.244551 465.228322 
Q 1081.275022 483.470981 1093.655649 500.803859 
" style="fill:none;stroke:#000000;stroke-linecap:round;"/>
    <path clip-path="url(#p9c638784dd)" d="M 1092.958163 496.386449 
L 1093.655649 500.803859 
L 1089.703229 498.711402 
L 1092.958163 496.386449 
z
" style="stroke:#000000;stroke-linecap:round;"/>
   </g>
   <g id="patch_17">
    <path clip-path="url(#p9c638784dd)" d="M 1051.802674 465.228322 
Q 1038.772203 483.470981 1026.391576 500.803859 
" style="fill:none;stroke:#000000;stroke-linecap:round;"/>
    <path clip-path="url(#p9c638784dd)" d="M 1030.343996 498.711402 
L 1026.391576 500.803859 
L 1027.089062 496.386449 
L 1030.343996 498.711402 
z
" style="stroke:#000000;stroke-linecap:round;"/>
   </g>
   <g id="patch_18">
    <path clip-path="url(#p9c638784dd)" d="M 1110.747503 524.732454 
Q 1123.777974 542.975114 1136.158601 560.307991 
" style="fill:none;stroke:#000000;stroke-linecap:round;"/>
    <path clip-path="url(#p9c638784dd)" d="M 1135.461115 555.890581 
L 1136.158601 560.307991 
L 1132.206181 558.215534 
L 1135.461115 555.890581 
z
" style="stroke:#000000;stroke-linecap:round;"/>
   </g>
   <g id="patch_19">
    <path clip-path="url(#p9c638784dd)" d="M 1153.250454 584.236586 
Q 1166.280925 602.479246 1178.661552 619.812124 
" style="fill:none;stroke:#000000;stroke-linecap:round;"/>
    <path clip-path="url(#p9c638784dd)" d="M 1177.964066 615.394713 
L 1178.661552 619.812124 
L 1174.709133 617.719666 
L 1177.964066 615.394713 
z
" style="stroke:#000000;stroke-linecap:round;"/>
   </g>
   <g id="patch_20">
    <path clip-path="url(#p9c638784dd)" d="M 1025.741599 524.732454 
Q 1038.772071 542.975114 1051.152698 560.307991 
" style="fill:none;stroke:#000000;stroke-linecap:round;"/>
    <path clip-path="url(#p9c638784dd)" d="M 1050.455212 555.890581 
L 1051.152698 560.307991 
L 1047.200278 558.215534 
L 1050.455212 555.890581 
z
" style="stroke:#000000;stroke-linecap:round;"/>
   </g>
   <g id="patch_21">
    <path clip-path="url(#p9c638784dd)" d="M 1009.299723 524.732454 
Q 996.269252 542.975114 983.888625 560.307991 
" style="fill:none;stroke:#000000;stroke-linecap:round;"/>
    <path clip-path="url(#p9c638784dd)" d="M 987.841045 558.215534 
L 983.888625 560.307991 
L 984.586111 555.890581 
L 987.841045 558.215534 
z
" style="stroke:#000000;stroke-linecap:round;"/>
   </g>
   <g id="patch_22">
    <path clip-path="url(#p9c638784dd)" d="M 983.238648 584.236586 
Q 996.269119 602.479246 1008.649746 619.812124 
" style="fill:none;stroke:#000000;stroke-linecap:round;"/>
    <path clip-path="url(#p9c638784dd)" d="M 1007.95226 615.394713 
L 1008.649746 619.812124 
L 1004.697326 617.719666 
L 1007.95226 615.394713 
z
" style="stroke:#000000;stroke-linecap:round;"/>
   </g>
   <g id="patch_23">
    <path clip-path="url(#p9c638784dd)" d="M 898.232745 584.236586 
Q 911.263216 602.479246 923.643843 619.812124 
" style="fill:none;stroke:#000000;stroke-linecap:round;"/>
    <path clip-path="url(#p9c638784dd)" d="M 922.946357 615.394713 
L 923.643843 619.812124 
L 919.691423 617.719666 
L 922.946357 615.394713 
z
" style="stroke:#000000;stroke-linecap:round;"/>
   </g>
   <g id="patch_24">
    <path clip-path="url(#p9c638784dd)" d="M 940.735696 643.740719 
Q 953.766167 661.983378 966.146794 679.316256 
" style="fill:none;stroke:#000000;stroke-linecap:round;"/>
    <path clip-path="url(#p9c638784dd)" d="M 965.449309 674.898846 
L 966.146794 679.316256 
L 962.194375 677.223798 
L 965.449309 674.898846 
z
" style="stroke:#000000;stroke-linecap:round;"/>
   </g>
   <g id="patch_25">
    <path clip-path="url(#p9c638784dd)" d="M 983.238648 703.244851 
Q 996.269119 721.48751 1008.649746 738.820388 
" style="fill:none;stroke:#000000;stroke-linecap:round;"/>
    <path clip-path="url(#p9c638784dd)" d="M 1007.95226 734.402978 
L 1008.649746 738.820388 
L 1004.697326 736.727931 
L 1007.95226 734.402978 
z
" style="stroke:#000000;stroke-linecap:round;"/>
   </g>
   <g id="patch_26">
    <path clip-path="url(#p9c638784dd)" d="M 813.226842 584.236586 
Q 826.257313 602.479246 838.63794 619.812124 
" style="fill:none;stroke:#000000;stroke-linecap:round;"/>
    <path clip-path="url(#p9c638784dd)" d="M 837.940454 615.394713 
L 838.63794 619.812124 
L 834.68552 617.719666 
L 837.940454 615.394713 
z
" style="stroke:#000000;stroke-linecap:round;"/>
   </g>
   <g id="patch_27">
    <path clip-path="url(#p9c638784dd)" d="M 796.787235 584.233409 
Q 698.748585 721.487518 601.35978 857.831846 
" style="fill:none;stroke:#000000;stroke-linecap:round;"/>
    <path clip-path="url(#p9c638784dd)" d="M 605.312199 855.739388 
L 601.35978 857.831846 
L 602.057265 853.414436 
L 605.312199 855.739388 
z
" style="stroke:#000000;stroke-linecap:round;"/>
   </g>
   <g id="patch_28">
    <path clip-path="url(#p9c638784dd)" d="M 855.729793 643.740719 
Q 868.760264 661.983378 881.140891 679.316256 
" style="fill:none;stroke:#000000;stroke-linecap:round;"/>
    <path clip-path="url(#p9c638784dd)" d="M 880.443405 674.898846 
L 881.140891 679.316256 
L 877.188471 677.223798 
L 880.443405 674.898846 
z
" style="stroke:#000000;stroke-linecap:round;"/>
   </g>
   <g id="patch_29">
    <path clip-path="url(#p9c638784dd)" d="M 839.287916 643.740719 
Q 762.501688 751.241438 686.365304 857.832376 
" style="fill:none;stroke:#000000;stroke-linecap:round;"/>
    <path clip-path="url(#p9c638784dd)" d="M 690.317723 855.739919 
L 686.365304 857.832376 
L 687.06279 853.414966 
L 690.317723 855.739919 
z
" style="stroke:#000000;stroke-linecap:round;"/>
   </g>
   <g id="patch_30">
    <path clip-path="url(#p9c638784dd)" d="M 898.232745 703.244851 
Q 911.263216 721.48751 923.643843 738.820388 
" style="fill:none;stroke:#000000;stroke-linecap:round;"/>
    <path clip-path="url(#p9c638784dd)" d="M 922.946357 734.402978 
L 923.643843 738.820388 
L 919.691423 736.727931 
L 922.946357 734.402978 
z
" style="stroke:#000000;stroke-linecap:round;"/>
   </g>
   <g id="patch_31">
    <path clip-path="url(#p9c638784dd)" d="M 881.790868 703.244851 
Q 868.760397 721.48751 856.37977 738.820388 
" style="fill:none;stroke:#000000;stroke-linecap:round;"/>
    <path clip-path="url(#p9c638784dd)" d="M 860.33219 736.727931 
L 856.37977 738.820388 
L 857.077256 734.402978 
L 860.33219 736.727931 
z
" style="stroke:#000000;stroke-linecap:round;"/>
   </g>
   <g id="patch_32">
    <path clip-path="url(#p9c638784dd)" d="M 940.735696 762.748983 
Q 953.766167 780.991643 966.146794 798.32452 
" style="fill:none;stroke:#000000;stroke-linecap:round;"/>
    <path clip-path="url(#p9c638784dd)" d="M 965.449309 793.90711 
L 966.146794 798.32452 
L 962.194375 796.232063 
L 965.449309 793.90711 
z
" style="stroke:#000000;stroke-linecap:round;"/>
   </g>
   <g id="patch_33">
    <path clip-path="url(#p9c638784dd)" d="M 983.238648 822.253115 
Q 996.269119 840.495775 1008.649746 857.828653 
" style="fill:none;stroke:#000000;stroke-linecap:round;"/>
    <path clip-path="url(#p9c638784dd)" d="M 1007.95226 853.411242 
L 1008.649746 857.828653 
L 1004.697326 855.736195 
L 1007.95226 853.411242 
z
" style="stroke:#000000;stroke-linecap:round;"/>
   </g>
   <g id="patch_34">
    <path clip-path="url(#p9c638784dd)" d="M 1025.741599 881.757248 
Q 1038.772071 899.999907 1051.152698 917.332785 
" style="fill:none;stroke:#000000;stroke-linecap:round;"/>
    <path clip-path="url(#p9c638784dd)" d="M 1050.455212 912.915375 
L 1051.152698 917.332785 
L 1047.200278 915.240327 
L 1050.455212 912.915375 
z
" style="stroke:#000000;stroke-linecap:round;"/>
   </g>
   <g id="patch_35">
    <path clip-path="url(#p9c638784dd)" d="M 855.729793 762.748983 
Q 868.760264 780.991643 881.140891 798.32452 
" style="fill:none;stroke:#000000;stroke-linecap:round;"/>
    <path clip-path="url(#p9c638784dd)" d="M 880.443405 793.90711 
L 881.140891 798.32452 
L 877.188471 796.232063 
L 880.443405 793.90711 
z
" style="stroke:#000000;stroke-linecap:round;"/>
   </g>
   <g id="patch_36">
    <path clip-path="url(#p9c638784dd)" d="M 839.287916 762.748983 
Q 805.004395 810.745913 771.370718 857.833061 
" style="fill:none;stroke:#000000;stroke-linecap:round;"/>
    <path clip-path="url(#p9c638784dd)" d="M 775.323137 855.740604 
L 771.370718 857.833061 
L 772.068204 853.415651 
L 775.323137 855.740604 
z
" style="stroke:#000000;stroke-linecap:round;"/>
   </g>
   <g id="patch_37">
    <path clip-path="url(#p9c638784dd)" d="M 898.232745 822.253115 
Q 911.263216 840.495775 923.643843 857.828653 
" style="fill:none;stroke:#000000;stroke-linecap:round;"/>
    <path clip-path="url(#p9c638784dd)" d="M 922.946357 853.411242 
L 923.643843 857.828653 
L 919.691423 855.736195 
L 922.946357 853.411242 
z
" style="stroke:#000000;stroke-linecap:round;"/>
   </g>
   <g id="patch_38">
    <path clip-path="url(#p9c638784dd)" d="M 881.790868 822.253115 
Q 868.760397 840.495775 856.37977 857.828653 
" style="fill:none;stroke:#000000;stroke-linecap:round;"/>
    <path clip-path="url(#p9c638784dd)" d="M 860.33219 855.736195 
L 856.37977 857.828653 
L 857.077256 853.411242 
L 860.33219 855.736195 
z
" style="stroke:#000000;stroke-linecap:round;"/>
   </g>
   <g id="patch_39">
    <path clip-path="url(#p9c638784dd)" d="M 855.729793 881.757248 
Q 868.760264 899.999907 881.140891 917.332785 
" style="fill:none;stroke:#000000;stroke-linecap:round;"/>
    <path clip-path="url(#p9c638784dd)" d="M 880.443405 912.915375 
L 881.140891 917.332785 
L 877.188471 915.240327 
L 880.443405 912.915375 
z
" style="stroke:#000000;stroke-linecap:round;"/>
   </g>
   <g id="patch_40">
    <path clip-path="url(#p9c638784dd)" d="M 898.232745 941.26138 
Q 911.263216 959.504039 923.643843 976.836917 
" style="fill:none;stroke:#000000;stroke-linecap:round;"/>
    <path clip-path="url(#p9c638784dd)" d="M 922.946357 972.419507 
L 923.643843 976.836917 
L 919.691423 974.74446 
L 922.946357 972.419507 
z
" style="stroke:#000000;stroke-linecap:round;"/>
   </g>
   <g id="patch_41">
    <path clip-path="url(#p9c638784dd)" d="M 770.72389 881.757248 
Q 783.754361 899.999907 796.134988 917.332785 
" style="fill:none;stroke:#000000;stroke-linecap:round;"/>
    <path clip-path="url(#p9c638784dd)" d="M 795.437502 912.915375 
L 796.134988 917.332785 
L 792.182568 915.240327 
L 795.437502 912.915375 
z
" style="stroke:#000000;stroke-linecap:round;"/>
   </g>
   <g id="patch_42">
    <path clip-path="url(#p9c638784dd)" d="M 813.226842 941.26138 
Q 826.257313 959.504039 838.63794 976.836917 
" style="fill:none;stroke:#000000;stroke-linecap:round;"/>
    <path clip-path="url(#p9c638784dd)" d="M 837.940454 972.419507 
L 838.63794 976.836917 
L 834.68552 974.74446 
L 837.940454 972.419507 
z
" style="stroke:#000000;stroke-linecap:round;"/>
   </g>
   <g id="patch_43">
    <path clip-path="url(#p9c638784dd)" d="M 600.712084 881.757248 
Q 613.742555 899.999907 626.123182 917.332785 
" style="fill:none;stroke:#000000;stroke-linecap:round;"/>
    <path clip-path="url(#p9c638784dd)" d="M 625.425696 912.915375 
L 626.123182 917.332785 
L 622.170762 915.240327 
L 625.425696 912.915375 
z
" style="stroke:#000000;stroke-linecap:round;"/>
   </g>
   <g id="patch_44">
    <path clip-path="url(#p9c638784dd)" d="M 584.271018 881.756113 
Q 358.724486 1197.521257 133.827799 1512.376619 
" style="fill:none;stroke:#000000;stroke-linecap:round;"/>
    <path clip-path="url(#p9c638784dd)" d="M 137.780219 1510.284161 
L 133.827799 1512.376619 
L 134.525285 1507.959208 
L 137.780219 1510.284161 
z
" style="stroke:#000000;stroke-linecap:round;"/>
   </g>
   <g id="patch_45">
    <path clip-path="url(#p9c638784dd)" d="M 643.215035 941.26138 
Q 656.245506 959.504039 668.626133 976.836917 
" style="fill:none;stroke:#000000;stroke-linecap:round;"/>
    <path clip-path="url(#p9c638784dd)" d="M 667.928647 972.419507 
L 668.626133 976.836917 
L 664.673713 974.74446 
L 667.928647 972.419507 
z
" style="stroke:#000000;stroke-linecap:round;"/>
   </g>
   <g id="patch_46">
    <path clip-path="url(#p9c638784dd)" d="M 626.773807 941.260472 
Q 571.238624 1019.009728 516.353285 1095.849203 
" style="fill:none;stroke:#000000;stroke-linecap:round;"/>
    <path clip-path="url(#p9c638784dd)" d="M 520.305705 1093.756745 
L 516.353285 1095.849203 
L 517.050771 1091.431793 
L 520.305705 1093.756745 
z
" style="stroke:#000000;stroke-linecap:round;"/>
   </g>
   <g id="patch_47">
    <path clip-path="url(#p9c638784dd)" d="M 685.717987 1000.765512 
Q 698.748458 1019.008171 711.129085 1036.341049 
" style="fill:none;stroke:#000000;stroke-linecap:round;"/>
    <path clip-path="url(#p9c638784dd)" d="M 710.431599 1031.923639 
L 711.129085 1036.341049 
L 707.176665 1034.248592 
L 710.431599 1031.923639 
z
" style="stroke:#000000;stroke-linecap:round;"/>
   </g>
   <g id="patch_48">
    <path clip-path="url(#p9c638784dd)" d="M 669.27611 1000.765512 
Q 656.245639 1019.008171 643.865012 1036.341049 
" style="fill:none;stroke:#000000;stroke-linecap:round;"/>
    <path clip-path="url(#p9c638784dd)" d="M 647.817432 1034.248592 
L 643.865012 1036.341049 
L 644.562498 1031.923639 
L 647.817432 1034.248592 
z
" style="stroke:#000000;stroke-linecap:round;"/>
   </g>
   <g id="patch_49">
    <path clip-path="url(#p9c638784dd)" d="M 728.220938 1060.269644 
Q 741.251409 1078.512304 753.632036 1095.845181 
" style="fill:none;stroke:#000000;stroke-linecap:round;"/>
    <path clip-path="url(#p9c638784dd)" d="M 752.934551 1091.427771 
L 753.632036 1095.845181 
L 749.679617 1093.752724 
L 752.934551 1091.427771 
z
" style="stroke:#000000;stroke-linecap:round;"/>
   </g>
   <g id="patch_50">
    <path clip-path="url(#p9c638784dd)" d="M 643.215035 1060.269644 
Q 656.245506 1078.512304 668.626133 1095.845181 
" style="fill:none;stroke:#000000;stroke-linecap:round;"/>
    <path clip-path="url(#p9c638784dd)" d="M 667.928647 1091.427771 
L 668.626133 1095.845181 
L 664.673713 1093.752724 
L 667.928647 1091.427771 
z
" style="stroke:#000000;stroke-linecap:round;"/>
   </g>
   <g id="patch_51">
    <path clip-path="url(#p9c638784dd)" d="M 626.773158 1060.269644 
Q 613.742687 1078.512304 601.36206 1095.845181 
" style="fill:none;stroke:#000000;stroke-linecap:round;"/>
    <path clip-path="url(#p9c638784dd)" d="M 605.31448 1093.752724 
L 601.36206 1095.845181 
L 602.059546 1091.427771 
L 605.31448 1093.752724 
z
" style="stroke:#000000;stroke-linecap:round;"/>
   </g>
   <g id="patch_52">
    <path clip-path="url(#p9c638784dd)" d="M 515.70618 1119.773776 
Q 528.736651 1138.016436 541.117278 1155.349314 
" style="fill:none;stroke:#000000;stroke-linecap:round;"/>
    <path clip-path="url(#p9c638784dd)" d="M 540.419793 1150.931903 
L 541.117278 1155.349314 
L 537.164859 1153.256856 
L 540.419793 1150.931903 
z
" style="stroke:#000000;stroke-linecap:round;"/>
   </g>
   <g id="patch_53">
    <path clip-path="url(#p9c638784dd)" d="M 499.266574 1119.770599 
Q 401.227924 1257.024708 303.839118 1393.369036 
" style="fill:none;stroke:#000000;stroke-linecap:round;"/>
    <path clip-path="url(#p9c638784dd)" d="M 307.791538 1391.276578 
L 303.839118 1393.369036 
L 304.536604 1388.951626 
L 307.791538 1391.276578 
z
" style="stroke:#000000;stroke-linecap:round;"/>
   </g>
   <g id="patch_54">
    <path clip-path="url(#p9c638784dd)" d="M 558.209132 1179.277909 
Q 571.239603 1197.520568 583.62023 1214.853446 
" style="fill:none;stroke:#000000;stroke-linecap:round;"/>
    <path clip-path="url(#p9c638784dd)" d="M 582.922744 1210.436036 
L 583.62023 1214.853446 
L 579.66781 1212.760988 
L 582.922744 1210.436036 
z
" style="stroke:#000000;stroke-linecap:round;"/>
   </g>
   <g id="patch_55">
    <path clip-path="url(#p9c638784dd)" d="M 600.712084 1238.782041 
Q 613.742555 1257.0247 626.123182 1274.357578 
" style="fill:none;stroke:#000000;stroke-linecap:round;"/>
    <path clip-path="url(#p9c638784dd)" d="M 625.425696 1269.940168 
L 626.123182 1274.357578 
L 622.170762 1272.265121 
L 625.425696 1269.940168 
z
" style="stroke:#000000;stroke-linecap:round;"/>
   </g>
   <g id="patch_56">
    <path clip-path="url(#p9c638784dd)" d="M 584.270855 1238.781133 
Q 528.735672 1316.530389 473.850333 1393.369864 
" style="fill:none;stroke:#000000;stroke-linecap:round;"/>
    <path clip-path="url(#p9c638784dd)" d="M 477.802753 1391.277407 
L 473.850333 1393.369864 
L 474.547819 1388.952454 
L 477.802753 1391.277407 
z
" style="stroke:#000000;stroke-linecap:round;"/>
   </g>
   <g id="patch_57">
    <path clip-path="url(#p9c638784dd)" d="M 643.215035 1298.286173 
Q 656.245506 1316.528833 668.626133 1333.86171 
" style="fill:none;stroke:#000000;stroke-linecap:round;"/>
    <path clip-path="url(#p9c638784dd)" d="M 667.928647 1329.4443 
L 668.626133 1333.86171 
L 664.673713 1331.769253 
L 667.928647 1329.4443 
z
" style="stroke:#000000;stroke-linecap:round;"/>
   </g>
   <g id="patch_58">
    <path clip-path="url(#p9c638784dd)" d="M 685.717987 1357.790305 
Q 698.748458 1376.032965 711.129085 1393.365843 
" style="fill:none;stroke:#000000;stroke-linecap:round;"/>
    <path clip-path="url(#p9c638784dd)" d="M 710.431599 1388.948432 
L 711.129085 1393.365843 
L 707.176665 1391.273385 
L 710.431599 1388.948432 
z
" style="stroke:#000000;stroke-linecap:round;"/>
   </g>
   <g id="patch_59">
    <path clip-path="url(#p9c638784dd)" d="M 669.27611 1357.790305 
Q 634.992589 1405.787235 601.358911 1452.874384 
" style="fill:none;stroke:#000000;stroke-linecap:round;"/>
    <path clip-path="url(#p9c638784dd)" d="M 605.311331 1450.781926 
L 601.358911 1452.874384 
L 602.056397 1448.456973 
L 605.311331 1450.781926 
z
" style="stroke:#000000;stroke-linecap:round;"/>
   </g>
   <g id="patch_60">
    <path clip-path="url(#p9c638784dd)" d="M 728.220938 1417.294438 
Q 741.251409 1435.537097 753.632036 1452.869975 
" style="fill:none;stroke:#000000;stroke-linecap:round;"/>
    <path clip-path="url(#p9c638784dd)" d="M 752.934551 1448.452565 
L 753.632036 1452.869975 
L 749.679617 1450.777517 
L 752.934551 1448.452565 
z
" style="stroke:#000000;stroke-linecap:round;"/>
   </g>
   <g id="patch_61">
    <path clip-path="url(#p9c638784dd)" d="M 711.779062 1417.294438 
Q 698.748591 1435.537097 686.367964 1452.869975 
" style="fill:none;stroke:#000000;stroke-linecap:round;"/>
    <path clip-path="url(#p9c638784dd)" d="M 690.320383 1450.777517 
L 686.367964 1452.869975 
L 687.065449 1448.452565 
L 690.320383 1450.777517 
z
" style="stroke:#000000;stroke-linecap:round;"/>
   </g>
   <g id="patch_62">
    <path clip-path="url(#p9c638784dd)" d="M 473.203229 1417.294438 
Q 486.2337 1435.537097 498.614327 1452.869975 
" style="fill:none;stroke:#000000;stroke-linecap:round;"/>
    <path clip-path="url(#p9c638784dd)" d="M 497.916841 1448.452565 
L 498.614327 1452.869975 
L 494.661907 1450.777517 
L 497.916841 1448.452565 
z
" style="stroke:#000000;stroke-linecap:round;"/>
   </g>
   <g id="patch_63">
    <path clip-path="url(#p9c638784dd)" d="M 515.70618 1476.79857 
Q 528.736651 1495.041229 541.117278 1512.374107 
" style="fill:none;stroke:#000000;stroke-linecap:round;"/>
    <path clip-path="url(#p9c638784dd)" d="M 540.419793 1507.956697 
L 541.117278 1512.374107 
L 537.164859 1510.28165 
L 540.419793 1507.956697 
z
" style="stroke:#000000;stroke-linecap:round;"/>
   </g>
   <g id="patch_64">
    <path clip-path="url(#p9c638784dd)" d="M 499.264304 1476.79857 
Q 486.233833 1495.041229 473.853206 1512.374107 
" style="fill:none;stroke:#000000;stroke-linecap:round;"/>
    <path clip-path="url(#p9c638784dd)" d="M 477.805625 1510.28165 
L 473.853206 1512.374107 
L 474.550691 1507.956697 
L 477.805625 1510.28165 
z
" style="stroke:#000000;stroke-linecap:round;"/>
   </g>
   <g id="patch_65">
    <path clip-path="url(#p9c638784dd)" d="M 303.191422 1417.294438 
Q 316.221893 1435.537097 328.60252 1452.869975 
" style="fill:none;stroke:#000000;stroke-linecap:round;"/>
    <path clip-path="url(#p9c638784dd)" d="M 327.905035 1448.452565 
L 328.60252 1452.869975 
L 324.650101 1450.777517 
L 327.905035 1448.452565 
z
" style="stroke:#000000;stroke-linecap:round;"/>
   </g>
   <g id="patch_66">
    <path clip-path="url(#p9c638784dd)" d="M 286.749546 1417.294438 
Q 273.719075 1435.537097 261.338448 1452.869975 
" style="fill:none;stroke:#000000;stroke-linecap:round;"/>
    <path clip-path="url(#p9c638784dd)" d="M 265.290867 1450.777517 
L 261.338448 1452.869975 
L 262.035934 1448.452565 
L 265.290867 1450.777517 
z
" style="stroke:#000000;stroke-linecap:round;"/>
   </g>
   <g id="patch_67">
    <path clip-path="url(#p9c638784dd)" d="M 345.694374 1476.79857 
Q 358.724845 1495.041229 371.105472 1512.374107 
" style="fill:none;stroke:#000000;stroke-linecap:round;"/>
    <path clip-path="url(#p9c638784dd)" d="M 370.407986 1507.956697 
L 371.105472 1512.374107 
L 367.153052 1510.28165 
L 370.407986 1507.956697 
z
" style="stroke:#000000;stroke-linecap:round;"/>
   </g>
   <g id="patch_68">
    <path clip-path="url(#p9c638784dd)" d="M 260.688471 1476.79857 
Q 273.718942 1495.041229 286.099569 1512.374107 
" style="fill:none;stroke:#000000;stroke-linecap:round;"/>
    <path clip-path="url(#p9c638784dd)" d="M 285.402083 1507.956697 
L 286.099569 1512.374107 
L 282.147149 1510.28165 
L 285.402083 1507.956697 
z
" style="stroke:#000000;stroke-linecap:round;"/>
   </g>
   <g id="patch_69">
    <path clip-path="url(#p9c638784dd)" d="M 244.246594 1476.79857 
Q 231.216123 1495.041229 218.835496 1512.374107 
" style="fill:none;stroke:#000000;stroke-linecap:round;"/>
    <path clip-path="url(#p9c638784dd)" d="M 222.787916 1510.28165 
L 218.835496 1512.374107 
L 219.532982 1507.956697 
L 222.787916 1510.28165 
z
" style="stroke:#000000;stroke-linecap:round;"/>
   </g>
   <g id="patch_70">
    <path clip-path="url(#p9c638784dd)" d="M 303.191422 1536.302702 
Q 316.221893 1554.545362 328.60252 1571.878239 
" style="fill:none;stroke:#000000;stroke-linecap:round;"/>
    <path clip-path="url(#p9c638784dd)" d="M 327.905035 1567.460829 
L 328.60252 1571.878239 
L 324.650101 1569.785782 
L 327.905035 1567.460829 
z
" style="stroke:#000000;stroke-linecap:round;"/>
   </g>
   <g id="patch_71">
    <path clip-path="url(#p9c638784dd)" d="M 133.179616 1536.302702 
Q 146.210087 1554.545362 158.590714 1571.878239 
" style="fill:none;stroke:#000000;stroke-linecap:round;"/>
    <path clip-path="url(#p9c638784dd)" d="M 157.893228 1567.460829 
L 158.590714 1571.878239 
L 154.638294 1569.785782 
L 157.893228 1567.460829 
z
" style="stroke:#000000;stroke-linecap:round;"/>
   </g>
   <g id="patch_72">
    <path clip-path="url(#p9c638784dd)" d="M 175.682568 1595.806834 
Q 188.713039 1614.049494 201.093666 1631.382372 
" style="fill:none;stroke:#000000;stroke-linecap:round;"/>
    <path clip-path="url(#p9c638784dd)" d="M 200.39618 1626.964961 
L 201.093666 1631.382372 
L 197.141246 1629.289914 
L 200.39618 1626.964961 
z
" style="stroke:#000000;stroke-linecap:round;"/>
   </g>
   <g id="PathCollection_1">
    <defs>
     <path d="M 0 14.142136 
C 3.750538 14.142136 7.347969 12.652031 10 10 
C 12.652031 7.347969 14.142136 3.750538 14.142136 0 
C 14.142136 -3.750538 12.652031 -7.347969 10 -10 
C 7.347969 -12.652031 3.750538 -14.142136 0 -14.142136 
C -3.750538 -14.142136 -7.347969 -12.652031 -10 -10 
C -12.652031 -7.347969 -14.142136 -3.750538 -14.142136 0 
C -14.142136 3.750538 -12.652031 7.347969 -10 10 
C -7.347969 12.652031 -3.750538 14.142136 0 14.142136 
z
" id="mcec7ba8d46" style="stroke:#008000;"/>
    </defs>
    <g clip-path="url(#p9c638784dd)">
     <use style="fill:#008000;stroke:#008000;" x="1102.526564" xlink:href="#mcec7ba8d46" y="156.198347"/>
     <use style="fill:#008000;stroke:#008000;" x="1145.029516" xlink:href="#mcec7ba8d46" y="215.702479"/>
     <use style="fill:#008000;stroke:#008000;" x="1187.532468" xlink:href="#mcec7ba8d46" y="275.206612"/>
     <use style="fill:#008000;stroke:#008000;" x="1230.035419" xlink:href="#mcec7ba8d46" y="334.710744"/>
     <use style="fill:#008000;stroke:#008000;" x="1272.538371" xlink:href="#mcec7ba8d46" y="394.214876"/>
     <use style="fill:#008000;stroke:#008000;" x="1315.041322" xlink:href="#mcec7ba8d46" y="453.719008"/>
     <use style="fill:#008000;stroke:#008000;" x="1230.035419" xlink:href="#mcec7ba8d46" y="453.719008"/>
     <use style="fill:#008000;stroke:#008000;" x="1272.538371" xlink:href="#mcec7ba8d46" y="513.22314"/>
     <use style="fill:#008000;stroke:#008000;" x="1315.041322" xlink:href="#mcec7ba8d46" y="572.727273"/>
     <use style="fill:#008000;stroke:#008000;" x="1145.029516" xlink:href="#mcec7ba8d46" y="453.719008"/>
     <use style="fill:#008000;stroke:#008000;" x="1187.532468" xlink:href="#mcec7ba8d46" y="513.22314"/>
     <use style="fill:#008000;stroke:#008000;" x="1230.035419" xlink:href="#mcec7ba8d46" y="572.727273"/>
     <use style="fill:#008000;stroke:#008000;" x="1060.023613" xlink:href="#mcec7ba8d46" y="453.719008"/>
     <use style="fill:#008000;stroke:#008000;" x="1102.526564" xlink:href="#mcec7ba8d46" y="513.22314"/>
     <use style="fill:#008000;stroke:#008000;" x="1145.029516" xlink:href="#mcec7ba8d46" y="572.727273"/>
     <use style="fill:#008000;stroke:#008000;" x="1187.532468" xlink:href="#mcec7ba8d46" y="632.231405"/>
     <use style="fill:#008000;stroke:#008000;" x="1017.520661" xlink:href="#mcec7ba8d46" y="513.22314"/>
     <use style="fill:#008000;stroke:#008000;" x="1060.023613" xlink:href="#mcec7ba8d46" y="572.727273"/>
     <use style="fill:#008000;stroke:#008000;" x="975.01771" xlink:href="#mcec7ba8d46" y="572.727273"/>
     <use style="fill:#008000;stroke:#008000;" x="1017.520661" xlink:href="#mcec7ba8d46" y="632.231405"/>
     <use style="fill:#008000;stroke:#008000;" x="890.011806" xlink:href="#mcec7ba8d46" y="572.727273"/>
     <use style="fill:#008000;stroke:#008000;" x="932.514758" xlink:href="#mcec7ba8d46" y="632.231405"/>
     <use style="fill:#008000;stroke:#008000;" x="975.01771" xlink:href="#mcec7ba8d46" y="691.735537"/>
     <use style="fill:#008000;stroke:#008000;" x="1017.520661" xlink:href="#mcec7ba8d46" y="751.239669"/>
     <use style="fill:#008000;stroke:#008000;" x="805.005903" xlink:href="#mcec7ba8d46" y="572.727273"/>
     <use style="fill:#008000;stroke:#008000;" x="847.508855" xlink:href="#mcec7ba8d46" y="632.231405"/>
     <use style="fill:#008000;stroke:#008000;" x="890.011806" xlink:href="#mcec7ba8d46" y="691.735537"/>
     <use style="fill:#008000;stroke:#008000;" x="932.514758" xlink:href="#mcec7ba8d46" y="751.239669"/>
     <use style="fill:#008000;stroke:#008000;" x="975.01771" xlink:href="#mcec7ba8d46" y="810.743802"/>
     <use style="fill:#008000;stroke:#008000;" x="1017.520661" xlink:href="#mcec7ba8d46" y="870.247934"/>
     <use style="fill:#008000;stroke:#008000;" x="1060.023613" xlink:href="#mcec7ba8d46" y="929.752066"/>
     <use style="fill:#008000;stroke:#008000;" x="847.508855" xlink:href="#mcec7ba8d46" y="751.239669"/>
     <use style="fill:#008000;stroke:#008000;" x="890.011806" xlink:href="#mcec7ba8d46" y="810.743802"/>
     <use style="fill:#008000;stroke:#008000;" x="932.514758" xlink:href="#mcec7ba8d46" y="870.247934"/>
     <use style="fill:#008000;stroke:#008000;" x="847.508855" xlink:href="#mcec7ba8d46" y="870.247934"/>
     <use style="fill:#008000;stroke:#008000;" x="890.011806" xlink:href="#mcec7ba8d46" y="929.752066"/>
     <use style="fill:#008000;stroke:#008000;" x="932.514758" xlink:href="#mcec7ba8d46" y="989.256198"/>
     <use style="fill:#008000;stroke:#008000;" x="762.502952" xlink:href="#mcec7ba8d46" y="870.247934"/>
     <use style="fill:#008000;stroke:#008000;" x="805.005903" xlink:href="#mcec7ba8d46" y="929.752066"/>
     <use style="fill:#008000;stroke:#008000;" x="847.508855" xlink:href="#mcec7ba8d46" y="989.256198"/>
     <use style="fill:#008000;stroke:#008000;" x="677.497048" xlink:href="#mcec7ba8d46" y="870.247934"/>
     <use style="fill:#008000;stroke:#008000;" x="592.491145" xlink:href="#mcec7ba8d46" y="870.247934"/>
     <use style="fill:#008000;stroke:#008000;" x="634.994097" xlink:href="#mcec7ba8d46" y="929.752066"/>
     <use style="fill:#008000;stroke:#008000;" x="677.497048" xlink:href="#mcec7ba8d46" y="989.256198"/>
     <use style="fill:#008000;stroke:#008000;" x="720" xlink:href="#mcec7ba8d46" y="1048.760331"/>
     <use style="fill:#008000;stroke:#008000;" x="762.502952" xlink:href="#mcec7ba8d46" y="1108.264463"/>
     <use style="fill:#008000;stroke:#008000;" x="634.994097" xlink:href="#mcec7ba8d46" y="1048.760331"/>
     <use style="fill:#008000;stroke:#008000;" x="677.497048" xlink:href="#mcec7ba8d46" y="1108.264463"/>
     <use style="fill:#008000;stroke:#008000;" x="592.491145" xlink:href="#mcec7ba8d46" y="1108.264463"/>
     <use style="fill:#008000;stroke:#008000;" x="507.485242" xlink:href="#mcec7ba8d46" y="1108.264463"/>
     <use style="fill:#008000;stroke:#008000;" x="549.988194" xlink:href="#mcec7ba8d46" y="1167.768595"/>
     <use style="fill:#008000;stroke:#008000;" x="592.491145" xlink:href="#mcec7ba8d46" y="1227.272727"/>
     <use style="fill:#008000;stroke:#008000;" x="634.994097" xlink:href="#mcec7ba8d46" y="1286.77686"/>
     <use style="fill:#008000;stroke:#008000;" x="677.497048" xlink:href="#mcec7ba8d46" y="1346.280992"/>
     <use style="fill:#008000;stroke:#008000;" x="720" xlink:href="#mcec7ba8d46" y="1405.785124"/>
     <use style="fill:#008000;stroke:#008000;" x="762.502952" xlink:href="#mcec7ba8d46" y="1465.289256"/>
     <use style="fill:#008000;stroke:#008000;" x="677.497048" xlink:href="#mcec7ba8d46" y="1465.289256"/>
     <use style="fill:#008000;stroke:#008000;" x="592.491145" xlink:href="#mcec7ba8d46" y="1465.289256"/>
     <use style="fill:#008000;stroke:#008000;" x="464.98229" xlink:href="#mcec7ba8d46" y="1405.785124"/>
     <use style="fill:#008000;stroke:#008000;" x="507.485242" xlink:href="#mcec7ba8d46" y="1465.289256"/>
     <use style="fill:#008000;stroke:#008000;" x="549.988194" xlink:href="#mcec7ba8d46" y="1524.793388"/>
     <use style="fill:#008000;stroke:#008000;" x="464.98229" xlink:href="#mcec7ba8d46" y="1524.793388"/>
     <use style="fill:#008000;stroke:#008000;" x="294.970484" xlink:href="#mcec7ba8d46" y="1405.785124"/>
     <use style="fill:#008000;stroke:#008000;" x="337.473436" xlink:href="#mcec7ba8d46" y="1465.289256"/>
     <use style="fill:#008000;stroke:#008000;" x="379.976387" xlink:href="#mcec7ba8d46" y="1524.793388"/>
     <use style="fill:#008000;stroke:#008000;" x="252.467532" xlink:href="#mcec7ba8d46" y="1465.289256"/>
     <use style="fill:#008000;stroke:#008000;" x="294.970484" xlink:href="#mcec7ba8d46" y="1524.793388"/>
     <use style="fill:#008000;stroke:#008000;" x="337.473436" xlink:href="#mcec7ba8d46" y="1584.297521"/>
     <use style="fill:#008000;stroke:#008000;" x="209.964581" xlink:href="#mcec7ba8d46" y="1524.793388"/>
     <use style="fill:#008000;stroke:#008000;" x="124.958678" xlink:href="#mcec7ba8d46" y="1524.793388"/>
     <use style="fill:#008000;stroke:#008000;" x="167.461629" xlink:href="#mcec7ba8d46" y="1584.297521"/>
     <use style="fill:#008000;stroke:#008000;" x="209.964581" xlink:href="#mcec7ba8d46" y="1643.801653"/>
    </g>
   </g>
   <g id="text_1">
    <g clip-path="url(#p9c638784dd)">
     <!-- n0 -->
     <defs>
      <path d="M 54.890625 33.015625 
L 54.890625 0 
L 45.90625 0 
L 45.90625 32.71875 
Q 45.90625 40.484375 42.875 44.328125 
Q 39.84375 48.1875 33.796875 48.1875 
Q 26.515625 48.1875 22.3125 43.546875 
Q 18.109375 38.921875 18.109375 30.90625 
L 18.109375 0 
L 9.078125 0 
L 9.078125 54.6875 
L 18.109375 54.6875 
L 18.109375 46.1875 
Q 21.34375 51.125 25.703125 53.5625 
Q 30.078125 56 35.796875 56 
Q 45.21875 56 50.046875 50.171875 
Q 54.890625 44.34375 54.890625 33.015625 
z
" id="DejaVuSans-110"/>
      <path d="M 31.78125 66.40625 
Q 24.171875 66.40625 20.328125 58.90625 
Q 16.5 51.421875 16.5 36.375 
Q 16.5 21.390625 20.328125 13.890625 
Q 24.171875 6.390625 31.78125 6.390625 
Q 39.453125 6.390625 43.28125 13.890625 
Q 47.125 21.390625 47.125 36.375 
Q 47.125 51.421875 43.28125 58.90625 
Q 39.453125 66.40625 31.78125 66.40625 
z
M 31.78125 74.21875 
Q 44.046875 74.21875 50.515625 64.515625 
Q 56.984375 54.828125 56.984375 36.375 
Q 56.984375 17.96875 50.515625 8.265625 
Q 44.046875 -1.421875 31.78125 -1.421875 
Q 19.53125 -1.421875 13.0625 8.265625 
Q 6.59375 17.96875 6.59375 36.375 
Q 6.59375 54.828125 13.0625 64.515625 
Q 19.53125 74.21875 31.78125 74.21875 
z
" id="DejaVuSans-48"/>
     </defs>
     <g transform="translate(1093.636564 160.061472)scale(0.14 -0.14)">
      <use xlink:href="#DejaVuSans-110"/>
      <use x="63.378906" xlink:href="#DejaVuSans-48"/>
     </g>
    </g>
   </g>
   <g id="text_2">
    <g clip-path="url(#p9c638784dd)">
     <!-- n1 -->
     <defs>
      <path d="M 12.40625 8.296875 
L 28.515625 8.296875 
L 28.515625 63.921875 
L 10.984375 60.40625 
L 10.984375 69.390625 
L 28.421875 72.90625 
L 38.28125 72.90625 
L 38.28125 8.296875 
L 54.390625 8.296875 
L 54.390625 0 
L 12.40625 0 
z
" id="DejaVuSans-49"/>
     </defs>
     <g transform="translate(1136.139516 219.565604)scale(0.14 -0.14)">
      <use xlink:href="#DejaVuSans-110"/>
      <use x="63.378906" xlink:href="#DejaVuSans-49"/>
     </g>
    </g>
   </g>
   <g id="text_3">
    <g clip-path="url(#p9c638784dd)">
     <!-- n2 -->
     <defs>
      <path d="M 19.1875 8.296875 
L 53.609375 8.296875 
L 53.609375 0 
L 7.328125 0 
L 7.328125 8.296875 
Q 12.9375 14.109375 22.625 23.890625 
Q 32.328125 33.6875 34.8125 36.53125 
Q 39.546875 41.84375 41.421875 45.53125 
Q 43.3125 49.21875 43.3125 52.78125 
Q 43.3125 58.59375 39.234375 62.25 
Q 35.15625 65.921875 28.609375 65.921875 
Q 23.96875 65.921875 18.8125 64.3125 
Q 13.671875 62.703125 7.8125 59.421875 
L 7.8125 69.390625 
Q 13.765625 71.78125 18.9375 73 
Q 24.125 74.21875 28.421875 74.21875 
Q 39.75 74.21875 46.484375 68.546875 
Q 53.21875 62.890625 53.21875 53.421875 
Q 53.21875 48.921875 51.53125 44.890625 
Q 49.859375 40.875 45.40625 35.40625 
Q 44.1875 33.984375 37.640625 27.21875 
Q 31.109375 20.453125 19.1875 8.296875 
z
" id="DejaVuSans-50"/>
     </defs>
     <g transform="translate(1178.642468 279.069737)scale(0.14 -0.14)">
      <use xlink:href="#DejaVuSans-110"/>
      <use x="63.378906" xlink:href="#DejaVuSans-50"/>
     </g>
    </g>
   </g>
   <g id="text_4">
    <g clip-path="url(#p9c638784dd)">
     <!-- n3 -->
     <defs>
      <path d="M 40.578125 39.3125 
Q 47.65625 37.796875 51.625 33 
Q 55.609375 28.21875 55.609375 21.1875 
Q 55.609375 10.40625 48.1875 4.484375 
Q 40.765625 -1.421875 27.09375 -1.421875 
Q 22.515625 -1.421875 17.65625 -0.515625 
Q 12.796875 0.390625 7.625 2.203125 
L 7.625 11.71875 
Q 11.71875 9.328125 16.59375 8.109375 
Q 21.484375 6.890625 26.8125 6.890625 
Q 36.078125 6.890625 40.9375 10.546875 
Q 45.796875 14.203125 45.796875 21.1875 
Q 45.796875 27.640625 41.28125 31.265625 
Q 36.765625 34.90625 28.71875 34.90625 
L 20.21875 34.90625 
L 20.21875 43.015625 
L 29.109375 43.015625 
Q 36.375 43.015625 40.234375 45.921875 
Q 44.09375 48.828125 44.09375 54.296875 
Q 44.09375 59.90625 40.109375 62.90625 
Q 36.140625 65.921875 28.71875 65.921875 
Q 24.65625 65.921875 20.015625 65.03125 
Q 15.375 64.15625 9.8125 62.3125 
L 9.8125 71.09375 
Q 15.4375 72.65625 20.34375 73.4375 
Q 25.25 74.21875 29.59375 74.21875 
Q 40.828125 74.21875 47.359375 69.109375 
Q 53.90625 64.015625 53.90625 55.328125 
Q 53.90625 49.265625 50.4375 45.09375 
Q 46.96875 40.921875 40.578125 39.3125 
z
" id="DejaVuSans-51"/>
     </defs>
     <g transform="translate(1221.145419 338.573869)scale(0.14 -0.14)">
      <use xlink:href="#DejaVuSans-110"/>
      <use x="63.378906" xlink:href="#DejaVuSans-51"/>
     </g>
    </g>
   </g>
   <g id="text_5">
    <g clip-path="url(#p9c638784dd)">
     <!-- n4 -->
     <defs>
      <path d="M 37.796875 64.3125 
L 12.890625 25.390625 
L 37.796875 25.390625 
z
M 35.203125 72.90625 
L 47.609375 72.90625 
L 47.609375 25.390625 
L 58.015625 25.390625 
L 58.015625 17.1875 
L 47.609375 17.1875 
L 47.609375 0 
L 37.796875 0 
L 37.796875 17.1875 
L 4.890625 17.1875 
L 4.890625 26.703125 
z
" id="DejaVuSans-52"/>
     </defs>
     <g transform="translate(1263.648371 398.078001)scale(0.14 -0.14)">
      <use xlink:href="#DejaVuSans-110"/>
      <use x="63.378906" xlink:href="#DejaVuSans-52"/>
     </g>
    </g>
   </g>
   <g id="text_6">
    <g clip-path="url(#p9c638784dd)">
     <!-- n5 -->
     <defs>
      <path d="M 10.796875 72.90625 
L 49.515625 72.90625 
L 49.515625 64.59375 
L 19.828125 64.59375 
L 19.828125 46.734375 
Q 21.96875 47.46875 24.109375 47.828125 
Q 26.265625 48.1875 28.421875 48.1875 
Q 40.625 48.1875 47.75 41.5 
Q 54.890625 34.8125 54.890625 23.390625 
Q 54.890625 11.625 47.5625 5.09375 
Q 40.234375 -1.421875 26.90625 -1.421875 
Q 22.3125 -1.421875 17.546875 -0.640625 
Q 12.796875 0.140625 7.71875 1.703125 
L 7.71875 11.625 
Q 12.109375 9.234375 16.796875 8.0625 
Q 21.484375 6.890625 26.703125 6.890625 
Q 35.15625 6.890625 40.078125 11.328125 
Q 45.015625 15.765625 45.015625 23.390625 
Q 45.015625 31 40.078125 35.4375 
Q 35.15625 39.890625 26.703125 39.890625 
Q 22.75 39.890625 18.8125 39.015625 
Q 14.890625 38.140625 10.796875 36.28125 
z
" id="DejaVuSans-53"/>
     </defs>
     <g transform="translate(1306.151322 457.582133)scale(0.14 -0.14)">
      <use xlink:href="#DejaVuSans-110"/>
      <use x="63.378906" xlink:href="#DejaVuSans-53"/>
     </g>
    </g>
   </g>
   <g id="text_7">
    <g clip-path="url(#p9c638784dd)">
     <!-- n6 -->
     <defs>
      <path d="M 33.015625 40.375 
Q 26.375 40.375 22.484375 35.828125 
Q 18.609375 31.296875 18.609375 23.390625 
Q 18.609375 15.53125 22.484375 10.953125 
Q 26.375 6.390625 33.015625 6.390625 
Q 39.65625 6.390625 43.53125 10.953125 
Q 47.40625 15.53125 47.40625 23.390625 
Q 47.40625 31.296875 43.53125 35.828125 
Q 39.65625 40.375 33.015625 40.375 
z
M 52.59375 71.296875 
L 52.59375 62.3125 
Q 48.875 64.0625 45.09375 64.984375 
Q 41.3125 65.921875 37.59375 65.921875 
Q 27.828125 65.921875 22.671875 59.328125 
Q 17.53125 52.734375 16.796875 39.40625 
Q 19.671875 43.65625 24.015625 45.921875 
Q 28.375 48.1875 33.59375 48.1875 
Q 44.578125 48.1875 50.953125 41.515625 
Q 57.328125 34.859375 57.328125 23.390625 
Q 57.328125 12.15625 50.6875 5.359375 
Q 44.046875 -1.421875 33.015625 -1.421875 
Q 20.359375 -1.421875 13.671875 8.265625 
Q 6.984375 17.96875 6.984375 36.375 
Q 6.984375 53.65625 15.1875 63.9375 
Q 23.390625 74.21875 37.203125 74.21875 
Q 40.921875 74.21875 44.703125 73.484375 
Q 48.484375 72.75 52.59375 71.296875 
z
" id="DejaVuSans-54"/>
     </defs>
     <g transform="translate(1221.145419 457.582133)scale(0.14 -0.14)">
      <use xlink:href="#DejaVuSans-110"/>
      <use x="63.378906" xlink:href="#DejaVuSans-54"/>
     </g>
    </g>
   </g>
   <g id="text_8">
    <g clip-path="url(#p9c638784dd)">
     <!-- n7 -->
     <defs>
      <path d="M 8.203125 72.90625 
L 55.078125 72.90625 
L 55.078125 68.703125 
L 28.609375 0 
L 18.3125 0 
L 43.21875 64.59375 
L 8.203125 64.59375 
z
" id="DejaVuSans-55"/>
     </defs>
     <g transform="translate(1263.648371 517.086265)scale(0.14 -0.14)">
      <use xlink:href="#DejaVuSans-110"/>
      <use x="63.378906" xlink:href="#DejaVuSans-55"/>
     </g>
    </g>
   </g>
   <g id="text_9">
    <g clip-path="url(#p9c638784dd)">
     <!-- n8 -->
     <defs>
      <path d="M 31.78125 34.625 
Q 24.75 34.625 20.71875 30.859375 
Q 16.703125 27.09375 16.703125 20.515625 
Q 16.703125 13.921875 20.71875 10.15625 
Q 24.75 6.390625 31.78125 6.390625 
Q 38.8125 6.390625 42.859375 10.171875 
Q 46.921875 13.96875 46.921875 20.515625 
Q 46.921875 27.09375 42.890625 30.859375 
Q 38.875 34.625 31.78125 34.625 
z
M 21.921875 38.8125 
Q 15.578125 40.375 12.03125 44.71875 
Q 8.5 49.078125 8.5 55.328125 
Q 8.5 64.0625 14.71875 69.140625 
Q 20.953125 74.21875 31.78125 74.21875 
Q 42.671875 74.21875 48.875 69.140625 
Q 55.078125 64.0625 55.078125 55.328125 
Q 55.078125 49.078125 51.53125 44.71875 
Q 48 40.375 41.703125 38.8125 
Q 48.828125 37.15625 52.796875 32.3125 
Q 56.78125 27.484375 56.78125 20.515625 
Q 56.78125 9.90625 50.3125 4.234375 
Q 43.84375 -1.421875 31.78125 -1.421875 
Q 19.734375 -1.421875 13.25 4.234375 
Q 6.78125 9.90625 6.78125 20.515625 
Q 6.78125 27.484375 10.78125 32.3125 
Q 14.796875 37.15625 21.921875 38.8125 
z
M 18.3125 54.390625 
Q 18.3125 48.734375 21.84375 45.5625 
Q 25.390625 42.390625 31.78125 42.390625 
Q 38.140625 42.390625 41.71875 45.5625 
Q 45.3125 48.734375 45.3125 54.390625 
Q 45.3125 60.0625 41.71875 63.234375 
Q 38.140625 66.40625 31.78125 66.40625 
Q 25.390625 66.40625 21.84375 63.234375 
Q 18.3125 60.0625 18.3125 54.390625 
z
" id="DejaVuSans-56"/>
     </defs>
     <g transform="translate(1306.151322 576.590398)scale(0.14 -0.14)">
      <use xlink:href="#DejaVuSans-110"/>
      <use x="63.378906" xlink:href="#DejaVuSans-56"/>
     </g>
    </g>
   </g>
   <g id="text_10">
    <g clip-path="url(#p9c638784dd)">
     <!-- n9 -->
     <defs>
      <path d="M 10.984375 1.515625 
L 10.984375 10.5 
Q 14.703125 8.734375 18.5 7.8125 
Q 22.3125 6.890625 25.984375 6.890625 
Q 35.75 6.890625 40.890625 13.453125 
Q 46.046875 20.015625 46.78125 33.40625 
Q 43.953125 29.203125 39.59375 26.953125 
Q 35.25 24.703125 29.984375 24.703125 
Q 19.046875 24.703125 12.671875 31.3125 
Q 6.296875 37.9375 6.296875 49.421875 
Q 6.296875 60.640625 12.9375 67.421875 
Q 19.578125 74.21875 30.609375 74.21875 
Q 43.265625 74.21875 49.921875 64.515625 
Q 56.59375 54.828125 56.59375 36.375 
Q 56.59375 19.140625 48.40625 8.859375 
Q 40.234375 -1.421875 26.421875 -1.421875 
Q 22.703125 -1.421875 18.890625 -0.6875 
Q 15.09375 0.046875 10.984375 1.515625 
z
M 30.609375 32.421875 
Q 37.25 32.421875 41.125 36.953125 
Q 45.015625 41.5 45.015625 49.421875 
Q 45.015625 57.28125 41.125 61.84375 
Q 37.25 66.40625 30.609375 66.40625 
Q 23.96875 66.40625 20.09375 61.84375 
Q 16.21875 57.28125 16.21875 49.421875 
Q 16.21875 41.5 20.09375 36.953125 
Q 23.96875 32.421875 30.609375 32.421875 
z
" id="DejaVuSans-57"/>
     </defs>
     <g transform="translate(1136.139516 457.582133)scale(0.14 -0.14)">
      <use xlink:href="#DejaVuSans-110"/>
      <use x="63.378906" xlink:href="#DejaVuSans-57"/>
     </g>
    </g>
   </g>
   <g id="text_11">
    <g clip-path="url(#p9c638784dd)">
     <!-- n10 -->
     <g transform="translate(1174.188718 517.086265)scale(0.14 -0.14)">
      <use xlink:href="#DejaVuSans-110"/>
      <use x="63.378906" xlink:href="#DejaVuSans-49"/>
      <use x="127.001953" xlink:href="#DejaVuSans-48"/>
     </g>
    </g>
   </g>
   <g id="text_12">
    <g clip-path="url(#p9c638784dd)">
     <!-- n11 -->
     <g transform="translate(1216.691669 576.590398)scale(0.14 -0.14)">
      <use xlink:href="#DejaVuSans-110"/>
      <use x="63.378906" xlink:href="#DejaVuSans-49"/>
      <use x="127.001953" xlink:href="#DejaVuSans-49"/>
     </g>
    </g>
   </g>
   <g id="text_13">
    <g clip-path="url(#p9c638784dd)">
     <!-- n12 -->
     <g transform="translate(1046.679863 457.582133)scale(0.14 -0.14)">
      <use xlink:href="#DejaVuSans-110"/>
      <use x="63.378906" xlink:href="#DejaVuSans-49"/>
      <use x="127.001953" xlink:href="#DejaVuSans-50"/>
     </g>
    </g>
   </g>
   <g id="text_14">
    <g clip-path="url(#p9c638784dd)">
     <!-- n13 -->
     <g transform="translate(1089.182814 517.086265)scale(0.14 -0.14)">
      <use xlink:href="#DejaVuSans-110"/>
      <use x="63.378906" xlink:href="#DejaVuSans-49"/>
      <use x="127.001953" xlink:href="#DejaVuSans-51"/>
     </g>
    </g>
   </g>
   <g id="text_15">
    <g clip-path="url(#p9c638784dd)">
     <!-- n14 -->
     <g transform="translate(1131.685766 576.590398)scale(0.14 -0.14)">
      <use xlink:href="#DejaVuSans-110"/>
      <use x="63.378906" xlink:href="#DejaVuSans-49"/>
      <use x="127.001953" xlink:href="#DejaVuSans-52"/>
     </g>
    </g>
   </g>
   <g id="text_16">
    <g clip-path="url(#p9c638784dd)">
     <!-- n15 -->
     <g transform="translate(1174.188718 636.09453)scale(0.14 -0.14)">
      <use xlink:href="#DejaVuSans-110"/>
      <use x="63.378906" xlink:href="#DejaVuSans-49"/>
      <use x="127.001953" xlink:href="#DejaVuSans-53"/>
     </g>
    </g>
   </g>
   <g id="text_17">
    <g clip-path="url(#p9c638784dd)">
     <!-- n16 -->
     <g transform="translate(1004.176911 517.086265)scale(0.14 -0.14)">
      <use xlink:href="#DejaVuSans-110"/>
      <use x="63.378906" xlink:href="#DejaVuSans-49"/>
      <use x="127.001953" xlink:href="#DejaVuSans-54"/>
     </g>
    </g>
   </g>
   <g id="text_18">
    <g clip-path="url(#p9c638784dd)">
     <!-- n17 -->
     <g transform="translate(1046.679863 576.590398)scale(0.14 -0.14)">
      <use xlink:href="#DejaVuSans-110"/>
      <use x="63.378906" xlink:href="#DejaVuSans-49"/>
      <use x="127.001953" xlink:href="#DejaVuSans-55"/>
     </g>
    </g>
   </g>
   <g id="text_19">
    <g clip-path="url(#p9c638784dd)">
     <!-- n18 -->
     <g transform="translate(961.67396 576.590398)scale(0.14 -0.14)">
      <use xlink:href="#DejaVuSans-110"/>
      <use x="63.378906" xlink:href="#DejaVuSans-49"/>
      <use x="127.001953" xlink:href="#DejaVuSans-56"/>
     </g>
    </g>
   </g>
   <g id="text_20">
    <g clip-path="url(#p9c638784dd)">
     <!-- n19 -->
     <g transform="translate(1004.176911 636.09453)scale(0.14 -0.14)">
      <use xlink:href="#DejaVuSans-110"/>
      <use x="63.378906" xlink:href="#DejaVuSans-49"/>
      <use x="127.001953" xlink:href="#DejaVuSans-57"/>
     </g>
    </g>
   </g>
   <g id="text_21">
    <g clip-path="url(#p9c638784dd)">
     <!-- n20 -->
     <g transform="translate(876.668056 576.590398)scale(0.14 -0.14)">
      <use xlink:href="#DejaVuSans-110"/>
      <use x="63.378906" xlink:href="#DejaVuSans-50"/>
      <use x="127.001953" xlink:href="#DejaVuSans-48"/>
     </g>
    </g>
   </g>
   <g id="text_22">
    <g clip-path="url(#p9c638784dd)">
     <!-- n21 -->
     <g transform="translate(919.171008 636.09453)scale(0.14 -0.14)">
      <use xlink:href="#DejaVuSans-110"/>
      <use x="63.378906" xlink:href="#DejaVuSans-50"/>
      <use x="127.001953" xlink:href="#DejaVuSans-49"/>
     </g>
    </g>
   </g>
   <g id="text_23">
    <g clip-path="url(#p9c638784dd)">
     <!-- n22 -->
     <g transform="translate(961.67396 695.598662)scale(0.14 -0.14)">
      <use xlink:href="#DejaVuSans-110"/>
      <use x="63.378906" xlink:href="#DejaVuSans-50"/>
      <use x="127.001953" xlink:href="#DejaVuSans-50"/>
     </g>
    </g>
   </g>
   <g id="text_24">
    <g clip-path="url(#p9c638784dd)">
     <!-- n23 -->
     <g transform="translate(1004.176911 755.102794)scale(0.14 -0.14)">
      <use xlink:href="#DejaVuSans-110"/>
      <use x="63.378906" xlink:href="#DejaVuSans-50"/>
      <use x="127.001953" xlink:href="#DejaVuSans-51"/>
     </g>
    </g>
   </g>
   <g id="text_25">
    <g clip-path="url(#p9c638784dd)">
     <!-- n24 -->
     <g transform="translate(791.662153 576.590398)scale(0.14 -0.14)">
      <use xlink:href="#DejaVuSans-110"/>
      <use x="63.378906" xlink:href="#DejaVuSans-50"/>
      <use x="127.001953" xlink:href="#DejaVuSans-52"/>
     </g>
    </g>
   </g>
   <g id="text_26">
    <g clip-path="url(#p9c638784dd)">
     <!-- n25 -->
     <g transform="translate(834.165105 636.09453)scale(0.14 -0.14)">
      <use xlink:href="#DejaVuSans-110"/>
      <use x="63.378906" xlink:href="#DejaVuSans-50"/>
      <use x="127.001953" xlink:href="#DejaVuSans-53"/>
     </g>
    </g>
   </g>
   <g id="text_27">
    <g clip-path="url(#p9c638784dd)">
     <!-- n26 -->
     <g transform="translate(876.668056 695.598662)scale(0.14 -0.14)">
      <use xlink:href="#DejaVuSans-110"/>
      <use x="63.378906" xlink:href="#DejaVuSans-50"/>
      <use x="127.001953" xlink:href="#DejaVuSans-54"/>
     </g>
    </g>
   </g>
   <g id="text_28">
    <g clip-path="url(#p9c638784dd)">
     <!-- n27 -->
     <g transform="translate(919.171008 755.102794)scale(0.14 -0.14)">
      <use xlink:href="#DejaVuSans-110"/>
      <use x="63.378906" xlink:href="#DejaVuSans-50"/>
      <use x="127.001953" xlink:href="#DejaVuSans-55"/>
     </g>
    </g>
   </g>
   <g id="text_29">
    <g clip-path="url(#p9c638784dd)">
     <!-- n28 -->
     <g transform="translate(961.67396 814.606927)scale(0.14 -0.14)">
      <use xlink:href="#DejaVuSans-110"/>
      <use x="63.378906" xlink:href="#DejaVuSans-50"/>
      <use x="127.001953" xlink:href="#DejaVuSans-56"/>
     </g>
    </g>
   </g>
   <g id="text_30">
    <g clip-path="url(#p9c638784dd)">
     <!-- n29 -->
     <g transform="translate(1004.176911 874.111059)scale(0.14 -0.14)">
      <use xlink:href="#DejaVuSans-110"/>
      <use x="63.378906" xlink:href="#DejaVuSans-50"/>
      <use x="127.001953" xlink:href="#DejaVuSans-57"/>
     </g>
    </g>
   </g>
   <g id="text_31">
    <g clip-path="url(#p9c638784dd)">
     <!-- n30 -->
     <g transform="translate(1046.679863 933.615191)scale(0.14 -0.14)">
      <use xlink:href="#DejaVuSans-110"/>
      <use x="63.378906" xlink:href="#DejaVuSans-51"/>
      <use x="127.001953" xlink:href="#DejaVuSans-48"/>
     </g>
    </g>
   </g>
   <g id="text_32">
    <g clip-path="url(#p9c638784dd)">
     <!-- n31 -->
     <g transform="translate(834.165105 755.102794)scale(0.14 -0.14)">
      <use xlink:href="#DejaVuSans-110"/>
      <use x="63.378906" xlink:href="#DejaVuSans-51"/>
      <use x="127.001953" xlink:href="#DejaVuSans-49"/>
     </g>
    </g>
   </g>
   <g id="text_33">
    <g clip-path="url(#p9c638784dd)">
     <!-- n32 -->
     <g transform="translate(876.668056 814.606927)scale(0.14 -0.14)">
      <use xlink:href="#DejaVuSans-110"/>
      <use x="63.378906" xlink:href="#DejaVuSans-51"/>
      <use x="127.001953" xlink:href="#DejaVuSans-50"/>
     </g>
    </g>
   </g>
   <g id="text_34">
    <g clip-path="url(#p9c638784dd)">
     <!-- n33 -->
     <g transform="translate(919.171008 874.111059)scale(0.14 -0.14)">
      <use xlink:href="#DejaVuSans-110"/>
      <use x="63.378906" xlink:href="#DejaVuSans-51"/>
      <use x="127.001953" xlink:href="#DejaVuSans-51"/>
     </g>
    </g>
   </g>
   <g id="text_35">
    <g clip-path="url(#p9c638784dd)">
     <!-- n34 -->
     <g transform="translate(834.165105 874.111059)scale(0.14 -0.14)">
      <use xlink:href="#DejaVuSans-110"/>
      <use x="63.378906" xlink:href="#DejaVuSans-51"/>
      <use x="127.001953" xlink:href="#DejaVuSans-52"/>
     </g>
    </g>
   </g>
   <g id="text_36">
    <g clip-path="url(#p9c638784dd)">
     <!-- n35 -->
     <g transform="translate(876.668056 933.615191)scale(0.14 -0.14)">
      <use xlink:href="#DejaVuSans-110"/>
      <use x="63.378906" xlink:href="#DejaVuSans-51"/>
      <use x="127.001953" xlink:href="#DejaVuSans-53"/>
     </g>
    </g>
   </g>
   <g id="text_37">
    <g clip-path="url(#p9c638784dd)">
     <!-- n36 -->
     <g transform="translate(919.171008 993.119323)scale(0.14 -0.14)">
      <use xlink:href="#DejaVuSans-110"/>
      <use x="63.378906" xlink:href="#DejaVuSans-51"/>
      <use x="127.001953" xlink:href="#DejaVuSans-54"/>
     </g>
    </g>
   </g>
   <g id="text_38">
    <g clip-path="url(#p9c638784dd)">
     <!-- n37 -->
     <g transform="translate(749.159202 874.111059)scale(0.14 -0.14)">
      <use xlink:href="#DejaVuSans-110"/>
      <use x="63.378906" xlink:href="#DejaVuSans-51"/>
      <use x="127.001953" xlink:href="#DejaVuSans-55"/>
     </g>
    </g>
   </g>
   <g id="text_39">
    <g clip-path="url(#p9c638784dd)">
     <!-- n38 -->
     <g transform="translate(791.662153 933.615191)scale(0.14 -0.14)">
      <use xlink:href="#DejaVuSans-110"/>
      <use x="63.378906" xlink:href="#DejaVuSans-51"/>
      <use x="127.001953" xlink:href="#DejaVuSans-56"/>
     </g>
    </g>
   </g>
   <g id="text_40">
    <g clip-path="url(#p9c638784dd)">
     <!-- n39 -->
     <g transform="translate(834.165105 993.119323)scale(0.14 -0.14)">
      <use xlink:href="#DejaVuSans-110"/>
      <use x="63.378906" xlink:href="#DejaVuSans-51"/>
      <use x="127.001953" xlink:href="#DejaVuSans-57"/>
     </g>
    </g>
   </g>
   <g id="text_41">
    <g clip-path="url(#p9c638784dd)">
     <!-- n40 -->
     <g transform="translate(664.153298 874.111059)scale(0.14 -0.14)">
      <use xlink:href="#DejaVuSans-110"/>
      <use x="63.378906" xlink:href="#DejaVuSans-52"/>
      <use x="127.001953" xlink:href="#DejaVuSans-48"/>
     </g>
    </g>
   </g>
   <g id="text_42">
    <g clip-path="url(#p9c638784dd)">
     <!-- n41 -->
     <g transform="translate(579.147395 874.111059)scale(0.14 -0.14)">
      <use xlink:href="#DejaVuSans-110"/>
      <use x="63.378906" xlink:href="#DejaVuSans-52"/>
      <use x="127.001953" xlink:href="#DejaVuSans-49"/>
     </g>
    </g>
   </g>
   <g id="text_43">
    <g clip-path="url(#p9c638784dd)">
     <!-- n42 -->
     <g transform="translate(621.650347 933.615191)scale(0.14 -0.14)">
      <use xlink:href="#DejaVuSans-110"/>
      <use x="63.378906" xlink:href="#DejaVuSans-52"/>
      <use x="127.001953" xlink:href="#DejaVuSans-50"/>
     </g>
    </g>
   </g>
   <g id="text_44">
    <g clip-path="url(#p9c638784dd)">
     <!-- n43 -->
     <g transform="translate(664.153298 993.119323)scale(0.14 -0.14)">
      <use xlink:href="#DejaVuSans-110"/>
      <use x="63.378906" xlink:href="#DejaVuSans-52"/>
      <use x="127.001953" xlink:href="#DejaVuSans-51"/>
     </g>
    </g>
   </g>
   <g id="text_45">
    <g clip-path="url(#p9c638784dd)">
     <!-- n44 -->
     <g transform="translate(706.65625 1052.623456)scale(0.14 -0.14)">
      <use xlink:href="#DejaVuSans-110"/>
      <use x="63.378906" xlink:href="#DejaVuSans-52"/>
      <use x="127.001953" xlink:href="#DejaVuSans-52"/>
     </g>
    </g>
   </g>
   <g id="text_46">
    <g clip-path="url(#p9c638784dd)">
     <!-- n45 -->
     <g transform="translate(749.159202 1112.127588)scale(0.14 -0.14)">
      <use xlink:href="#DejaVuSans-110"/>
      <use x="63.378906" xlink:href="#DejaVuSans-52"/>
      <use x="127.001953" xlink:href="#DejaVuSans-53"/>
     </g>
    </g>
   </g>
   <g id="text_47">
    <g clip-path="url(#p9c638784dd)">
     <!-- n46 -->
     <g transform="translate(621.650347 1052.623456)scale(0.14 -0.14)">
      <use xlink:href="#DejaVuSans-110"/>
      <use x="63.378906" xlink:href="#DejaVuSans-52"/>
      <use x="127.001953" xlink:href="#DejaVuSans-54"/>
     </g>
    </g>
   </g>
   <g id="text_48">
    <g clip-path="url(#p9c638784dd)">
     <!-- n47 -->
     <g transform="translate(664.153298 1112.127588)scale(0.14 -0.14)">
      <use xlink:href="#DejaVuSans-110"/>
      <use x="63.378906" xlink:href="#DejaVuSans-52"/>
      <use x="127.001953" xlink:href="#DejaVuSans-55"/>
     </g>
    </g>
   </g>
   <g id="text_49">
    <g clip-path="url(#p9c638784dd)">
     <!-- n48 -->
     <g transform="translate(579.147395 1112.127588)scale(0.14 -0.14)">
      <use xlink:href="#DejaVuSans-110"/>
      <use x="63.378906" xlink:href="#DejaVuSans-52"/>
      <use x="127.001953" xlink:href="#DejaVuSans-56"/>
     </g>
    </g>
   </g>
   <g id="text_50">
    <g clip-path="url(#p9c638784dd)">
     <!-- n49 -->
     <g transform="translate(494.141492 1112.127588)scale(0.14 -0.14)">
      <use xlink:href="#DejaVuSans-110"/>
      <use x="63.378906" xlink:href="#DejaVuSans-52"/>
      <use x="127.001953" xlink:href="#DejaVuSans-57"/>
     </g>
    </g>
   </g>
   <g id="text_51">
    <g clip-path="url(#p9c638784dd)">
     <!-- n50 -->
     <g transform="translate(536.644444 1171.63172)scale(0.14 -0.14)">
      <use xlink:href="#DejaVuSans-110"/>
      <use x="63.378906" xlink:href="#DejaVuSans-53"/>
      <use x="127.001953" xlink:href="#DejaVuSans-48"/>
     </g>
    </g>
   </g>
   <g id="text_52">
    <g clip-path="url(#p9c638784dd)">
     <!-- n51 -->
     <g transform="translate(579.147395 1231.135852)scale(0.14 -0.14)">
      <use xlink:href="#DejaVuSans-110"/>
      <use x="63.378906" xlink:href="#DejaVuSans-53"/>
      <use x="127.001953" xlink:href="#DejaVuSans-49"/>
     </g>
    </g>
   </g>
   <g id="text_53">
    <g clip-path="url(#p9c638784dd)">
     <!-- n52 -->
     <g transform="translate(621.650347 1290.639985)scale(0.14 -0.14)">
      <use xlink:href="#DejaVuSans-110"/>
      <use x="63.378906" xlink:href="#DejaVuSans-53"/>
      <use x="127.001953" xlink:href="#DejaVuSans-50"/>
     </g>
    </g>
   </g>
   <g id="text_54">
    <g clip-path="url(#p9c638784dd)">
     <!-- n53 -->
     <g transform="translate(664.153298 1350.144117)scale(0.14 -0.14)">
      <use xlink:href="#DejaVuSans-110"/>
      <use x="63.378906" xlink:href="#DejaVuSans-53"/>
      <use x="127.001953" xlink:href="#DejaVuSans-51"/>
     </g>
    </g>
   </g>
   <g id="text_55">
    <g clip-path="url(#p9c638784dd)">
     <!-- n54 -->
     <g transform="translate(706.65625 1409.648249)scale(0.14 -0.14)">
      <use xlink:href="#DejaVuSans-110"/>
      <use x="63.378906" xlink:href="#DejaVuSans-53"/>
      <use x="127.001953" xlink:href="#DejaVuSans-52"/>
     </g>
    </g>
   </g>
   <g id="text_56">
    <g clip-path="url(#p9c638784dd)">
     <!-- n55 -->
     <g transform="translate(749.159202 1469.152381)scale(0.14 -0.14)">
      <use xlink:href="#DejaVuSans-110"/>
      <use x="63.378906" xlink:href="#DejaVuSans-53"/>
      <use x="127.001953" xlink:href="#DejaVuSans-53"/>
     </g>
    </g>
   </g>
   <g id="text_57">
    <g clip-path="url(#p9c638784dd)">
     <!-- n56 -->
     <g transform="translate(664.153298 1469.152381)scale(0.14 -0.14)">
      <use xlink:href="#DejaVuSans-110"/>
      <use x="63.378906" xlink:href="#DejaVuSans-53"/>
      <use x="127.001953" xlink:href="#DejaVuSans-54"/>
     </g>
    </g>
   </g>
   <g id="text_58">
    <g clip-path="url(#p9c638784dd)">
     <!-- n57 -->
     <g transform="translate(579.147395 1469.152381)scale(0.14 -0.14)">
      <use xlink:href="#DejaVuSans-110"/>
      <use x="63.378906" xlink:href="#DejaVuSans-53"/>
      <use x="127.001953" xlink:href="#DejaVuSans-55"/>
     </g>
    </g>
   </g>
   <g id="text_59">
    <g clip-path="url(#p9c638784dd)">
     <!-- n58 -->
     <g transform="translate(451.63854 1409.648249)scale(0.14 -0.14)">
      <use xlink:href="#DejaVuSans-110"/>
      <use x="63.378906" xlink:href="#DejaVuSans-53"/>
      <use x="127.001953" xlink:href="#DejaVuSans-56"/>
     </g>
    </g>
   </g>
   <g id="text_60">
    <g clip-path="url(#p9c638784dd)">
     <!-- n59 -->
     <g transform="translate(494.141492 1469.152381)scale(0.14 -0.14)">
      <use xlink:href="#DejaVuSans-110"/>
      <use x="63.378906" xlink:href="#DejaVuSans-53"/>
      <use x="127.001953" xlink:href="#DejaVuSans-57"/>
     </g>
    </g>
   </g>
   <g id="text_61">
    <g clip-path="url(#p9c638784dd)">
     <!-- n60 -->
     <g transform="translate(536.644444 1528.656513)scale(0.14 -0.14)">
      <use xlink:href="#DejaVuSans-110"/>
      <use x="63.378906" xlink:href="#DejaVuSans-54"/>
      <use x="127.001953" xlink:href="#DejaVuSans-48"/>
     </g>
    </g>
   </g>
   <g id="text_62">
    <g clip-path="url(#p9c638784dd)">
     <!-- n61 -->
     <g transform="translate(451.63854 1528.656513)scale(0.14 -0.14)">
      <use xlink:href="#DejaVuSans-110"/>
      <use x="63.378906" xlink:href="#DejaVuSans-54"/>
      <use x="127.001953" xlink:href="#DejaVuSans-49"/>
     </g>
    </g>
   </g>
   <g id="text_63">
    <g clip-path="url(#p9c638784dd)">
     <!-- n62 -->
     <g transform="translate(281.626734 1409.648249)scale(0.14 -0.14)">
      <use xlink:href="#DejaVuSans-110"/>
      <use x="63.378906" xlink:href="#DejaVuSans-54"/>
      <use x="127.001953" xlink:href="#DejaVuSans-50"/>
     </g>
    </g>
   </g>
   <g id="text_64">
    <g clip-path="url(#p9c638784dd)">
     <!-- n63 -->
     <g transform="translate(324.129686 1469.152381)scale(0.14 -0.14)">
      <use xlink:href="#DejaVuSans-110"/>
      <use x="63.378906" xlink:href="#DejaVuSans-54"/>
      <use x="127.001953" xlink:href="#DejaVuSans-51"/>
     </g>
    </g>
   </g>
   <g id="text_65">
    <g clip-path="url(#p9c638784dd)">
     <!-- n64 -->
     <g transform="translate(366.632637 1528.656513)scale(0.14 -0.14)">
      <use xlink:href="#DejaVuSans-110"/>
      <use x="63.378906" xlink:href="#DejaVuSans-54"/>
      <use x="127.001953" xlink:href="#DejaVuSans-52"/>
     </g>
    </g>
   </g>
   <g id="text_66">
    <g clip-path="url(#p9c638784dd)">
     <!-- n65 -->
     <g transform="translate(239.123782 1469.152381)scale(0.14 -0.14)">
      <use xlink:href="#DejaVuSans-110"/>
      <use x="63.378906" xlink:href="#DejaVuSans-54"/>
      <use x="127.001953" xlink:href="#DejaVuSans-53"/>
     </g>
    </g>
   </g>
   <g id="text_67">
    <g clip-path="url(#p9c638784dd)">
     <!-- n66 -->
     <g transform="translate(281.626734 1528.656513)scale(0.14 -0.14)">
      <use xlink:href="#DejaVuSans-110"/>
      <use x="63.378906" xlink:href="#DejaVuSans-54"/>
      <use x="127.001953" xlink:href="#DejaVuSans-54"/>
     </g>
    </g>
   </g>
   <g id="text_68">
    <g clip-path="url(#p9c638784dd)">
     <!-- n67 -->
     <g transform="translate(324.129686 1588.160646)scale(0.14 -0.14)">
      <use xlink:href="#DejaVuSans-110"/>
      <use x="63.378906" xlink:href="#DejaVuSans-54"/>
      <use x="127.001953" xlink:href="#DejaVuSans-55"/>
     </g>
    </g>
   </g>
   <g id="text_69">
    <g clip-path="url(#p9c638784dd)">
     <!-- n68 -->
     <g transform="translate(196.620831 1528.656513)scale(0.14 -0.14)">
      <use xlink:href="#DejaVuSans-110"/>
      <use x="63.378906" xlink:href="#DejaVuSans-54"/>
      <use x="127.001953" xlink:href="#DejaVuSans-56"/>
     </g>
    </g>
   </g>
   <g id="text_70">
    <g clip-path="url(#p9c638784dd)">
     <!-- n69 -->
     <g transform="translate(111.614928 1528.656513)scale(0.14 -0.14)">
      <use xlink:href="#DejaVuSans-110"/>
      <use x="63.378906" xlink:href="#DejaVuSans-54"/>
      <use x="127.001953" xlink:href="#DejaVuSans-57"/>
     </g>
    </g>
   </g>
   <g id="text_71">
    <g clip-path="url(#p9c638784dd)">
     <!-- n70 -->
     <g transform="translate(154.117879 1588.160646)scale(0.14 -0.14)">
      <use xlink:href="#DejaVuSans-110"/>
      <use x="63.378906" xlink:href="#DejaVuSans-55"/>
      <use x="127.001953" xlink:href="#DejaVuSans-48"/>
     </g>
    </g>
   </g>
   <g id="text_72">
    <g clip-path="url(#p9c638784dd)">
     <!-- n71 -->
     <g transform="translate(196.620831 1647.664778)scale(0.14 -0.14)">
      <use xlink:href="#DejaVuSans-110"/>
      <use x="63.378906" xlink:href="#DejaVuSans-55"/>
      <use x="127.001953" xlink:href="#DejaVuSans-49"/>
     </g>
    </g>
   </g>
  </g>
 </g>
 <defs>
  <clipPath id="p9c638784dd">
   <rect height="1800" width="1440" x="0" y="0"/>
  </clipPath>
 </defs>
</svg>
